<svg width="20" height="20" viewBox="0 0 20 20" fill="none" xmlns="http://www.w3.org/2000/svg">
<path fill-rule="evenodd" clip-rule="evenodd" d="M2.51083 7.62579C2.5 8.07579 2.5 8.58496 2.5 9.16663V10.8333C2.5 13.19 2.5 14.3691 3.2325 15.1008C3.96417 15.8333 5.14333 15.8333 7.5 15.8333H12.5C14.8567 15.8333 16.0358 15.8333 16.7675 15.1008C17.5 14.3691 17.5 13.19 17.5 10.8333V9.16663C17.5 8.58496 17.5 8.07496 17.4892 7.62579L10.8092 11.3366C10.5616 11.4741 10.2831 11.5462 10 11.5462C9.71685 11.5462 9.43837 11.4741 9.19083 11.3366L2.51083 7.62579ZM2.7025 5.85829C2.77194 5.87496 2.83944 5.90163 2.905 5.93829L10 9.87996L17.095 5.93829C17.1611 5.90218 17.2286 5.87552 17.2975 5.85829C17.1892 5.46329 17.0225 5.15413 16.7675 4.89913C16.0358 4.16663 14.8567 4.16663 12.5 4.16663H7.5C5.14333 4.16663 3.96417 4.16663 3.2325 4.89913C2.97667 5.15413 2.81083 5.46329 2.7025 5.85746" fill="#A29C9C"/>
</svg>
