<svg width="20" height="20" viewBox="0 0 20 20" fill="none" xmlns="http://www.w3.org/2000/svg">
<g clip-path="url(#clip0_29_2)">
<path d="M18.0943 8.73338L16.2332 8.17782C16.1044 7.72862 15.9274 7.29463 15.7055 6.88338L16.6166 5.17782C16.6508 5.11344 16.6633 5.03976 16.6523 4.9677C16.6413 4.89564 16.6073 4.82906 16.5555 4.77782L15.2277 3.44449C15.1764 3.39264 15.1099 3.35869 15.0378 3.34768C14.9657 3.33667 14.8921 3.34919 14.8277 3.38338L13.1332 4.28893C12.7181 4.05588 12.2783 3.86956 11.8221 3.73338L11.2666 1.89449C11.2431 1.82672 11.1987 1.76815 11.1398 1.72722C11.0809 1.68629 11.0105 1.6651 10.9388 1.66671H9.06101C8.98887 1.66705 8.91872 1.6904 8.86076 1.73336C8.80281 1.77633 8.76008 1.83667 8.73879 1.9056L8.18323 3.73893C7.7232 3.87435 7.27971 4.06068 6.86101 4.29449L5.19435 3.39449C5.12997 3.3603 5.05628 3.34778 4.98422 3.35879C4.91217 3.3698 4.84558 3.40375 4.79435 3.4556L3.44435 4.77227C3.3925 4.8235 3.35855 4.89009 3.34754 4.96214C3.33653 5.0342 3.34905 5.10789 3.38324 5.17227L4.28324 6.83893C4.04981 7.25587 3.86348 7.69747 3.72768 8.1556L1.88879 8.71116C1.81986 8.73244 1.75952 8.77517 1.71655 8.83313C1.67359 8.89108 1.65024 8.96124 1.6499 9.03338V10.9112C1.65024 10.9833 1.67359 11.0535 1.71655 11.1114C1.75952 11.1694 1.81986 11.2121 1.88879 11.2334L3.73879 11.7889C3.87612 12.2394 4.06242 12.6735 4.29435 13.0834L3.38324 14.8278C3.34905 14.8922 3.33653 14.9659 3.34754 15.0379C3.35855 15.11 3.3925 15.1766 3.44435 15.2278L4.77212 16.5556C4.82336 16.6075 4.88995 16.6414 4.962 16.6524C5.03406 16.6634 5.10775 16.6509 5.17212 16.6167L6.88879 15.7C7.29497 15.919 7.72331 16.094 8.16657 16.2223L8.72212 18.0945C8.74341 18.1634 8.78614 18.2238 8.8441 18.2667C8.90205 18.3097 8.9722 18.333 9.04435 18.3334H10.9221C10.9943 18.333 11.0644 18.3097 11.1224 18.2667C11.1803 18.2238 11.2231 18.1634 11.2443 18.0945L11.7999 16.2167C12.2395 16.0881 12.6641 15.9131 13.0666 15.6945L14.7943 16.6167C14.8587 16.6509 14.9324 16.6634 15.0045 16.6524C15.0765 16.6414 15.1431 16.6075 15.1943 16.5556L16.5221 15.2278C16.574 15.1766 16.6079 15.11 16.6189 15.0379C16.6299 14.9659 16.6174 14.8922 16.5832 14.8278L15.661 13.1056C15.8819 12.7016 16.0588 12.2751 16.1888 11.8334L18.061 11.2778C18.1299 11.2565 18.1903 11.2138 18.2332 11.1559C18.2762 11.0979 18.2996 11.0277 18.2999 10.9556V9.06116C18.3032 8.99207 18.2852 8.92364 18.2485 8.86505C18.2118 8.80646 18.158 8.76051 18.0943 8.73338ZM9.9999 13.0556C9.39557 13.0556 8.80481 12.8764 8.30233 12.5406C7.79984 12.2049 7.4082 11.7277 7.17694 11.1694C6.94567 10.611 6.88516 9.99666 7.00306 9.40394C7.12096 8.81122 7.41197 8.26677 7.8393 7.83944C8.26662 7.41211 8.81107 7.1211 9.40379 7.0032C9.99651 6.8853 10.6109 6.94581 11.1692 7.17708C11.7275 7.40835 12.2048 7.79999 12.5405 8.30247C12.8763 8.80495 13.0555 9.39571 13.0555 10C13.0555 10.8104 12.7335 11.5876 12.1605 12.1606C11.5875 12.7337 10.8103 13.0556 9.9999 13.0556Z" fill="#A29C9C"/>
</g>
<defs>
<clipPath id="clip0_29_2">
<rect width="20" height="20" fill="white"/>
</clipPath>
</defs>
</svg>
