<svg width="27" height="27" viewBox="0 0 27 27" fill="none" xmlns="http://www.w3.org/2000/svg">
<g filter="url(#filter0_d_23_61)">
<path d="M5.16667 18.75C4.87153 18.75 4.62431 18.65 4.425 18.45C4.2257 18.25 4.1257 18.0028 4.125 17.7083C4.12431 17.4139 4.22431 17.1667 4.425 16.9667C4.6257 16.7667 4.87292 16.6667 5.16667 16.6667H21.8333C22.1285 16.6667 22.376 16.7667 22.576 16.9667C22.776 17.1667 22.8757 17.4139 22.875 17.7083C22.8743 18.0028 22.7743 18.2503 22.575 18.451C22.3757 18.6517 22.1285 18.7514 21.8333 18.75H5.16667ZM5.16667 13.5417C4.87153 13.5417 4.62431 13.4417 4.425 13.2417C4.2257 13.0417 4.1257 12.7944 4.125 12.5C4.12431 12.2056 4.22431 11.9583 4.425 11.7583C4.6257 11.5583 4.87292 11.4583 5.16667 11.4583H21.8333C22.1285 11.4583 22.376 11.5583 22.576 11.7583C22.776 11.9583 22.8757 12.2056 22.875 12.5C22.8743 12.7944 22.7743 13.042 22.575 13.2427C22.3757 13.4434 22.1285 13.5431 21.8333 13.5417H5.16667ZM5.16667 8.33333C4.87153 8.33333 4.62431 8.23333 4.425 8.03333C4.2257 7.83333 4.1257 7.58611 4.125 7.29167C4.12431 6.99722 4.22431 6.75 4.425 6.55C4.6257 6.35 4.87292 6.25 5.16667 6.25H21.8333C22.1285 6.25 22.376 6.35 22.576 6.55C22.776 6.75 22.8757 6.99722 22.875 7.29167C22.8743 7.58611 22.7743 7.83368 22.575 8.03437C22.3757 8.23507 22.1285 8.33472 21.8333 8.33333H5.16667Z" fill="#A29C9C"/>
</g>
<defs>
<filter id="filter0_d_23_61" x="-3" y="0" width="33" height="33" filterUnits="userSpaceOnUse" color-interpolation-filters="sRGB">
<feFlood flood-opacity="0" result="BackgroundImageFix"/>
<feColorMatrix in="SourceAlpha" type="matrix" values="0 0 0 0 0 0 0 0 0 0 0 0 0 0 0 0 0 0 127 0" result="hardAlpha"/>
<feOffset dy="4"/>
<feGaussianBlur stdDeviation="2"/>
<feComposite in2="hardAlpha" operator="out"/>
<feColorMatrix type="matrix" values="0 0 0 0 0 0 0 0 0 0 0 0 0 0 0 0 0 0 0.25 0"/>
<feBlend mode="normal" in2="BackgroundImageFix" result="effect1_dropShadow_23_61"/>
<feBlend mode="normal" in="SourceGraphic" in2="effect1_dropShadow_23_61" result="shape"/>
</filter>
</defs>
</svg>
