<svg width="16" height="16" viewBox="0 0 16 16" fill="none" xmlns="http://www.w3.org/2000/svg">
<path d="M6.71798 1.74267C6.94332 1.23601 7.63732 1.21134 7.90932 1.66667L7.94865 1.74267L8.64332 3.30601C9.2499 4.67062 10.2586 5.81752 11.5347 6.59334L11.7493 6.71934L12.9827 7.41267C13.0807 7.46756 13.1634 7.54612 13.2234 7.64118C13.2833 7.73624 13.3185 7.84478 13.3257 7.95692C13.3329 8.06905 13.3119 8.18121 13.2647 8.28317C13.2175 8.38513 13.1455 8.47366 13.0553 8.54067L12.9833 8.58734L11.7493 9.28067C10.4476 10.0129 9.40044 11.1252 8.74798 12.4687L8.64332 12.694L7.94865 14.2573C7.72332 14.764 7.02932 14.7887 6.75732 14.3333L6.71798 14.2573L6.02332 12.694C5.41674 11.3294 4.408 10.1825 3.13199 9.40667L2.91732 9.28067L1.68399 8.58734C1.58594 8.53245 1.50319 8.4539 1.44327 8.35883C1.38336 8.26377 1.34819 8.15523 1.34096 8.0431C1.33374 7.93096 1.35469 7.8188 1.40191 7.71684C1.44914 7.61488 1.52112 7.52636 1.61132 7.45934L1.68332 7.41267L2.91732 6.71934C4.21906 5.9871 5.2662 4.87485 5.91865 3.53134L6.02332 3.30601L6.71798 1.74267ZM12.814 1.41401C13.1448 2.16579 13.7092 2.79092 14.4233 3.19667C14.53 3.25667 14.53 3.41001 14.4233 3.47001C13.7088 3.87582 13.1442 4.50121 12.8133 5.25334C12.8007 5.28165 12.7801 5.30569 12.754 5.32256C12.728 5.33943 12.6977 5.34841 12.6667 5.34841C12.6356 5.34841 12.6053 5.33943 12.5793 5.32256C12.5532 5.30569 12.5326 5.28165 12.52 5.25334C12.189 4.50145 11.6244 3.87631 10.91 3.47067C10.8859 3.45692 10.8658 3.43703 10.8519 3.41303C10.8379 3.38903 10.8306 3.36176 10.8306 3.33401C10.8306 3.30625 10.8379 3.27898 10.8519 3.25498C10.8658 3.23098 10.8859 3.21109 10.91 3.19734C11.6246 2.79135 12.1892 2.16572 12.52 1.41334C12.5326 1.38503 12.5532 1.36099 12.5793 1.34411C12.6053 1.32724 12.6356 1.31827 12.6667 1.31827C12.6977 1.31827 12.728 1.32724 12.754 1.34411C12.7801 1.36099 12.8007 1.38503 12.8133 1.41334L12.814 1.41401Z" fill="#FF7A14"/>
</svg>
